<svg xmlns="http://www.w3.org/2000/svg" width="1200" height="390" viewBox="0 0 1200 390"><title>Current Security Operations</title><rect width="1200" height="390" rx="28" fill="#05070b"/><rect x="1" y="1" width="1198" height="388" rx="27" fill="none" stroke="#22d3ee" stroke-opacity=".45"/><rect width="1200" height="2" fill="#22d3ee" opacity=".3"><animate attributeName="y" values="-2;390;-2" dur="7s" repeatCount="indefinite"/></rect><text x="48" y="48" fill="#22d3ee" font-family="monospace" font-size="12">&gt; SECURITY_OS / CURRENT_OPERATIONS</text><text x="48" y="82" fill="#f8fafc" font-family="Arial" font-size="28" font-weight="800">CURRENT OPERATIONS</text><g font-family="monospace" font-size="10"><rect x="40" y="120" width="350" height="200" rx="18" fill="#071713" stroke="#34d399" stroke-opacity=".6"/><circle cx="65" cy="148" r="6" fill="#34d399"><animate attributeName="r" values="5;9;5" dur="1.6s" repeatCount="indefinite"/></circle><text x="82" y="152" fill="#34d399">ACTIVE · BUILDING</text><text x="62" y="190" fill="#f8fafc" font-family="Arial" font-size="20" font-weight="800">SHIELDDESK</text><text x="62" y="216" fill="#94a3b8">AI-assisted security operations</text><text x="62" y="250" fill="#34d399">CONTROL PLANE</text><text x="62" y="272" fill="#64748b">investigate · verify · remediate</text><rect x="410" y="120" width="350" height="200" rx="18" fill="#100d1c" stroke="#8b5cf6" stroke-opacity=".6"/><circle cx="435" cy="148" r="6" fill="#8b5cf6"><animate attributeName="r" values="5;9;5" dur="2s" repeatCount="indefinite"/></circle><text x="452" y="152" fill="#a78bfa">RESEARCH</text><text x="432" y="190" fill="#f8fafc" font-family="Arial" font-size="20" font-weight="800">AI × CYBERSECURITY</text><text x="432" y="216" fill="#94a3b8">AI security · agents · automation</text><text x="432" y="250" fill="#a78bfa">RESEARCH MODE</text><text x="432" y="272" fill="#64748b">experiment · measure · iterate</text><rect x="780" y="120" width="380" height="200" rx="18" fill="#08131b" stroke="#22d3ee" stroke-opacity=".6"/><circle cx="805" cy="148" r="6" fill="#22d3ee"><animate attributeName="r" values="5;9;5" dur="2.4s" repeatCount="indefinite"/></circle><text x="822" y="152" fill="#22d3ee">EXPLORING</text><text x="802" y="190" fill="#f8fafc" font-family="Arial" font-size="20" font-weight="800">AUTONOMOUS SECURITY</text><text x="802" y="216" fill="#94a3b8">AI-assisted SOC · security agents</text><text x="802" y="250" fill="#22d3ee">NEXT LAYER</text><text x="802" y="272" fill="#64748b">bounded action · evidence · human control</text></g><text x="48" y="355" fill="#64748b" font-family="monospace" font-size="9">MODE: BUILD · RESEARCH · SHIP</text></svg>