<svg xmlns="http://www.w3.org/2000/svg" width="1400" height="360" viewBox="0 0 1400 360"><defs><style>.t{font:700 11px ui-monospace,monospace;fill:#22d3ee;letter-spacing:2px}.h{font:700 22px ui-monospace,monospace;fill:#e2e8f0}.s{font:11px ui-monospace,monospace;fill:#94a3b8}.n{font:700 11px ui-monospace,monospace;fill:#e2e8f0}.c{fill:#0a1119;stroke:#26364f}@keyframes p{50%{opacity:.3}}.p{animation:p 2s infinite}</style></defs><rect x="2" y="2" width="1396" height="356" rx="20" fill="#05070b" stroke="#26364f"/><text x="28" y="38" class="t">// DEVELOPER CONSOLE</text><text x="28" y="70" class="h">SECURITY ENGINEERING TOOLCHAIN</text><rect x="28" y="88" width="1344" height="1" fill="#26364f"/><g class="c"><rect x="45" y="112" width="305" height="205" rx="14"/><rect x="365" y="112" width="305" height="205" rx="14"/><rect x="685" y="112" width="305" height="205" rx="14"/><rect x="1005" y="112" width="350" height="205" rx="14"/></g><g><circle cx="70" cy="140" r="5" fill="#22d3ee" class="p"/><text x="85" y="144" class="t">LANGUAGES</text><text x="70" y="178" class="n">PYTHON</text><text x="70" y="201" class="s">TypeScript · JavaScript</text><text x="70" y="239" class="t">SECURITY</text><text x="70" y="263" class="s">Kali · Bash · SQL</text></g><g><circle cx="390" cy="140" r="5" fill="#8b5cf6" class="p"/><text x="405" y="144" class="t">APPLICATIONS</text><text x="390" y="178" class="n">REACT · NEXT.JS</text><text x="390" y="201" class="s">Tailwind · Vite</text><text x="390" y="239" class="t">BACKEND</text><text x="390" y="263" class="s">FastAPI · Django · Node.js</text></g><g><circle cx="710" cy="140" r="5" fill="#34d399" class="p"/><text x="725" y="144" class="t">DATA + INFRA</text><text x="710" y="178" class="n">POSTGRESQL · REDIS</text><text x="710" y="201" class="s">MySQL · Elasticsearch</text><text x="710" y="239" class="t">DELIVERY</text><text x="710" y="263" class="s">Docker · Linux · GitHub Actions</text></g><g><circle cx="1030" cy="140" r="5" fill="#f59e0b" class="p"/><text x="1045" y="144" class="t">SECURITY TOOLING</text><text x="1030" y="178" class="n">BURP · NMAP · WIRESHARK</text><text x="1030" y="201" class="s">Volatility · MITRE ATT&amp;CK</text><text x="1030" y="239" class="t">ML / AI</text><text x="1030" y="263" class="s">PyTorch · scikit-learn · LLMs</text></g></svg>