<svg xmlns="http://www.w3.org/2000/svg" width="1400" height="400" viewBox="0 0 1400 400"><defs><style>.t{font:700 11px ui-monospace,monospace;fill:#22d3ee;letter-spacing:2px}.h{font:700 23px ui-monospace,monospace;fill:#e2e8f0}.s{font:11px ui-monospace,monospace;fill:#94a3b8}.n{font:700 10px ui-monospace,monospace;fill:#e2e8f0}.card{fill:#0a1119;stroke:#26364f}@keyframes p{50%{opacity:.3}}@keyframes flow{to{stroke-dashoffset:-80}}.p{animation:p 2s infinite}.flow{stroke-dasharray:8 12;animation:flow 2s linear infinite}</style></defs><rect x="2" y="2" width="1396" height="396" rx="22" fill="#05070b" stroke="#26364f"/><text x="30" y="38" class="t">// RESEARCH FOCUS</text><text x="30" y="70" class="h">QUESTIONS → EXPERIMENTS → MEASURED OUTCOMES</text><g stroke="#334155" stroke-width="2" fill="none"><path class="flow" d="M300 210H500M700 210H900M1100 210H1240"/></g><g class="card"><rect x="80" y="145" width="220" height="130" rx="14"/><rect x="500" y="145" width="200" height="130" rx="14"/><rect x="900" y="145" width="200" height="130" rx="14"/><rect x="1240" y="145" width="100" height="130" rx="14"/></g><g><text x="105" y="180" class="t">01</text><text x="105" y="208" class="n">QUESTION</text><text x="105" y="232" class="s">What can be</text><text x="105" y="250" class="s">improved?</text><text x="525" y="180" class="t">02</text><text x="525" y="208" class="n">EXPERIMENT</text><text x="525" y="232" class="s">Build + test</text><text x="525" y="250" class="s">the hypothesis</text><text x="925" y="180" class="t">03</text><text x="925" y="208" class="n">MEASURE</text><text x="925" y="232" class="s">Observe evidence</text><text x="925" y="250" class="s">and outcomes</text><circle cx="1288" cy="195" r="18" fill="#0b1622" stroke="#8b5cf6" class="p"/><text x="1288" y="200" text-anchor="middle" class="n">↻</text><text x="1262" y="235" class="n">REFINE</text></g><g class="n"><text x="80" y="325">AI SECURITY</text><text x="300" y="325">SECURITY VERIFICATION</text><text x="560" y="325">THREAT INTELLIGENCE</text><text x="850" y="325">IoT / EMBEDDED</text><text x="1080" y="325">DIGITAL FORENSICS</text></g></svg>