<svg xmlns="http://www.w3.org/2000/svg" width="1400" height="360" viewBox="0 0 1400 360"><defs><style>.t{font:700 11px ui-monospace,monospace;fill:#22d3ee;letter-spacing:2px}.h{font:700 22px ui-monospace,monospace;fill:#e2e8f0}.s{font:11px ui-monospace,monospace;fill:#94a3b8}.n{font:700 10px ui-monospace,monospace;fill:#e2e8f0}@keyframes p{50%{opacity:.35}}.p{animation:p 2s infinite}</style></defs><rect x="2" y="2" width="1396" height="356" rx="22" fill="#05070b" stroke="#26364f"/><text x="30" y="38" class="t">// SECURITY DOMAINS</text><text x="30" y="70" class="h">ENGINEERING ACROSS THE SECURITY LIFECYCLE</text><g stroke="#334155" stroke-width="2"><path d="M700 180L300 115M700 180L300 245M700 180L520 75M700 180L520 285M700 180L880 75M700 180L880 285M700 180L1100 115M700 180L1100 245"/></g><circle cx="700" cy="180" r="58" fill="#0b1622" stroke="#8b5cf6" stroke-width="2" class="p"/><text x="700" y="176" text-anchor="middle" class="n">SECURITY</text><text x="700" y="195" text-anchor="middle" class="s">ENGINEERING CORE</text><g fill="#0b1622" stroke="#22d3ee"><rect x="180" y="80" width="240" height="70" rx="12"/><rect x="180" y="210" width="240" height="70" rx="12"/><rect x="400" y="40" width="240" height="70" rx="12"/><rect x="400" y="250" width="240" height="70" rx="12"/><rect x="760" y="40" width="240" height="70" rx="12"/><rect x="760" y="250" width="240" height="70" rx="12"/><rect x="980" y="80" width="240" height="70" rx="12"/><rect x="980" y="210" width="240" height="70" rx="12"/></g><g class="n" text-anchor="middle"><text x="300" y="112">AI SECURITY</text><text x="300" y="242">OFFENSIVE SECURITY</text><text x="520" y="72">THREAT INTELLIGENCE</text><text x="520" y="282">DIGITAL FORENSICS</text><text x="880" y="72">IoT / EMBEDDED</text><text x="880" y="282">SECURITY AUTOMATION</text><text x="1100" y="112">SECURE SYSTEMS</text><text x="1100" y="242">APPLICATION SECURITY</text></g></svg>