<svg xmlns="http://www.w3.org/2000/svg" width="1200" height="900" viewBox="0 0 1200 900" role="img" aria-labelledby="title desc"><title id="title">Anand Binu Arjun — Technology Stack</title><desc id="desc">Technology stack separated into core technologies, working knowledge and tools being explored.</desc><defs><linearGradient id="edge" x1="0" y1="0" x2="1" y2="0"><stop stop-color="#22d3ee"/><stop offset=".5" stop-color="#8b5cf6"/><stop offset="1" stop-color="#34d399"/></linearGradient><linearGradient id="coreEdge"><stop stop-color="#22d3ee"/><stop offset="1" stop-color="#34d399"/></linearGradient><linearGradient id="workEdge"><stop stop-color="#8b5cf6"/><stop offset="1" stop-color="#22d3ee"/></linearGradient><linearGradient id="learnEdge"><stop stop-color="#f472b6"/><stop offset="1" stop-color="#8b5cf6"/></linearGradient><pattern id="grid" width="32" height="32" patternUnits="userSpaceOnUse"><path d="M32 0H0V32" fill="none" stroke="#94a3b8" stroke-opacity=".05"/></pattern><filter id="glow"><feGaussianBlur stdDeviation="5" result="b"/><feMerge><feMergeNode in="b"/><feMergeNode in="SourceGraphic"/></feMerge></filter></defs><rect width="1200" height="900" rx="28" fill="#05070b"/><rect x="1" y="1" width="1198" height="898" rx="27" fill="url(#grid)" stroke="url(#edge)" stroke-opacity=".45"/><text x="50" y="55" fill="#22d3ee" font-family="monospace" font-size="13" letter-spacing="2">&gt; TECH_STACK / DEPTH_MAP</text><text x="50" y="94" fill="#f8fafc" font-family="Arial, Helvetica, sans-serif" font-size="31" font-weight="800">TECHNOLOGY DEPTH MAP</text><text x="50" y="122" fill="#64748b" font-family="monospace" font-size="11">WHAT I BUILD WITH · WHAT I WORK WITH · WHAT I'M EXPLORING</text><g font-family="monospace" font-size="10"><rect x="790" y="72" width="115" height="28" rx="14" fill="#0b1517" stroke="#34d399" stroke-opacity=".45"/><circle cx="807" cy="86" r="4" fill="#34d399"/><text x="818" y="90" fill="#cbd5e1">CORE</text><rect x="915" y="72" width="125" height="28" rx="14" fill="#111022" stroke="#8b5cf6" stroke-opacity=".45"/><circle cx="932" cy="86" r="4" fill="#8b5cf6"/><text x="943" y="90" fill="#cbd5e1">WORKING</text><rect x="1050" y="72" width="110" height="28" rx="14" fill="#160d18" stroke="#f472b6" stroke-opacity=".45"/><circle cx="1067" cy="86" r="4" fill="#f472b6"/><text x="1078" y="90" fill="#cbd5e1">EXPLORING</text></g><g font-family="Arial, Helvetica, sans-serif"><g transform="translate(35 155)"><rect width="365" height="690" rx="24" fill="#07120f" stroke="url(#coreEdge)" stroke-opacity=".72"/><rect x="1" y="1" width="363" height="688" rx="23" fill="#0a1512" fill-opacity=".55"/><circle cx="32" cy="36" r="10" fill="#34d399" filter="url(#glow)"/><text x="54" y="43" fill="#34d399" font-size="21" font-weight="800">CORE TECHNOLOGIES</text><text x="28" y="67" fill="#64748b" font-family="monospace" font-size="10">USED REGULARLY IN PROJECTS</text><g font-family="monospace"><text x="25" y="103" fill="#22d3ee" font-size="11">SECURITY ENGINEERING</text><g font-size="12"><rect x="20" y="118" width="155" height="40" rx="10" fill="#0b1717" stroke="#1e3a3a"/><text x="36" y="143" fill="#e2e8f0">Kali Linux</text><rect x="190" y="118" width="155" height="40" rx="10" fill="#0b1717" stroke="#1e3a3a"/><text x="206" y="143" fill="#e2e8f0">Burp Suite</text><rect x="20" y="166" width="155" height="40" rx="10" fill="#0b1717" stroke="#1e3a3a"/><text x="36" y="191" fill="#e2e8f0">Nmap</text><rect x="190" y="166" width="155" height="40" rx="10" fill="#0b1717" stroke="#1e3a3a"/><text x="206" y="191" fill="#e2e8f0">Wireshark</text><rect x="20" y="214" width="155" height="40" rx="10" fill="#0b1717" stroke="#1e3a3a"/><text x="36" y="239" fill="#e2e8f0">Nuclei</text><rect x="190" y="214" width="155" height="40" rx="10" fill="#0b1717" stroke="#1e3a3a"/><text x="206" y="239" fill="#e2e8f0">Volatility</text></g><text x="25" y="288" fill="#22d3ee" font-size="11">PROGRAMMING</text><g font-size="12"><rect x="20" y="303" width="155" height="40" rx="10" fill="#0b1717" stroke="#1e3a3a"/><text x="36" y="328" fill="#e2e8f0">Python</text><rect x="190" y="303" width="155" height="40" rx="10" fill="#0b1717" stroke="#1e3a3a"/><text x="206" y="328" fill="#e2e8f0">JavaScript</text><rect x="20" y="351" width="155" height="40" rx="10" fill="#0b1717" stroke="#1e3a3a"/><text x="36" y="376" fill="#e2e8f0">TypeScript</text><rect x="190" y="351" width="155" height="40" rx="10" fill="#0b1717" stroke="#1e3a3a"/><text x="206" y="376" fill="#e2e8f0">Node.js</text></g><text x="25" y="425" fill="#22d3ee" font-size="11">APPLICATION ENGINEERING</text><g font-size="12"><rect x="20" y="440" width="155" height="40" rx="10" fill="#0b1717" stroke="#1e3a3a"/><text x="36" y="465" fill="#e2e8f0">React</text><rect x="190" y="440" width="155" height="40" rx="10" fill="#0b1717" stroke="#1e3a3a"/><text x="206" y="465" fill="#e2e8f0">FastAPI</text><rect x="20" y="488" width="155" height="40" rx="10" fill="#0b1717" stroke="#1e3a3a"/><text x="36" y="513" fill="#e2e8f0">PostgreSQL</text><rect x="190" y="488" width="155" height="40" rx="10" fill="#0b1717" stroke="#1e3a3a"/><text x="206" y="513" fill="#e2e8f0">Docker</text></g><text x="25" y="562" fill="#22d3ee" font-size="11">AI / SECURITY AI</text><g font-size="12"><rect x="20" y="577" width="155" height="40" rx="10" fill="#0b1717" stroke="#1e3a3a"/><text x="36" y="602" fill="#e2e8f0">LLMs / RAG</text><rect x="190" y="577" width="155" height="40" rx="10" fill="#0b1717" stroke="#1e3a3a"/><text x="206" y="602" fill="#e2e8f0">NLP</text></g></g></g><g transform="translate(417 155)"><rect width="365" height="690" rx="24" fill="#0d0b19" stroke="url(#workEdge)" stroke-opacity=".72"/><rect x="1" y="1" width="363" height="688" rx="23" fill="#111022" fill-opacity=".48"/><circle cx="32" cy="36" r="10" fill="#8b5cf6" filter="url(#glow)"/><text x="54" y="43" fill="#a78bfa" font-size="21" font-weight="800">WORKING KNOWLEDGE</text><text x="28" y="67" fill="#64748b" font-family="monospace" font-size="10">HANDS-ON / USED AS NEEDED</text><g font-family="monospace"><text x="25" y="103" fill="#a78bfa" font-size="11">FRAMEWORKS / BACKEND</text><g font-size="12"><rect x="20" y="118" width="155" height="40" rx="10" fill="#100e20" stroke="#2d2349"/><text x="36" y="143" fill="#e2e8f0">Django</text><rect x="190" y="118" width="155" height="40" rx="10" fill="#100e20" stroke="#2d2349"/><text x="206" y="143" fill="#e2e8f0">Next.js</text><rect x="20" y="166" width="155" height="40" rx="10" fill="#100e20" stroke="#2d2349"/><text x="36" y="191" fill="#e2e8f0">Vue.js</text><rect x="190" y="166" width="155" height="40" rx="10" fill="#100e20" stroke="#2d2349"/><text x="206" y="191" fill="#e2e8f0">Laravel</text><rect x="20" y="214" width="155" height="40" rx="10" fill="#100e20" stroke="#2d2349"/><text x="36" y="239" fill="#e2e8f0">Tailwind CSS</text><rect x="190" y="214" width="155" height="40" rx="10" fill="#100e20" stroke="#2d2349"/><text x="206" y="239" fill="#e2e8f0">Vite</text></g><text x="25" y="288" fill="#a78bfa" font-size="11">DATA / SEARCH</text><g font-size="12"><rect x="20" y="303" width="155" height="40" rx="10" fill="#100e20" stroke="#2d2349"/><text x="36" y="328" fill="#e2e8f0">MySQL</text><rect x="190" y="303" width="155" height="40" rx="10" fill="#100e20" stroke="#2d2349"/><text x="206" y="328" fill="#e2e8f0">Redis</text><rect x="20" y="351" width="155" height="40" rx="10" fill="#100e20" stroke="#2d2349"/><text x="36" y="376" fill="#e2e8f0">Elasticsearch</text><rect x="190" y="351" width="155" height="40" rx="10" fill="#100e20" stroke="#2d2349"/><text x="206" y="376" fill="#e2e8f0">Neo4j</text></g><text x="25" y="425" fill="#a78bfa" font-size="11">DEVOPS / LINUX</text><g font-size="12"><rect x="20" y="440" width="155" height="40" rx="10" fill="#100e20" stroke="#2d2349"/><text x="36" y="465" fill="#e2e8f0">Linux / RHCSA</text><rect x="190" y="440" width="155" height="40" rx="10" fill="#100e20" stroke="#2d2349"/><text x="206" y="465" fill="#e2e8f0">GitHub Actions</text><rect x="20" y="488" width="155" height="40" rx="10" fill="#100e20" stroke="#2d2349"/><text x="36" y="513" fill="#e2e8f0">Nginx</text><rect x="190" y="488" width="155" height="40" rx="10" fill="#100e20" stroke="#2d2349"/><text x="206" y="513" fill="#e2e8f0">Git</text></g><text x="25" y="562" fill="#a78bfa" font-size="11">AI / ML / FORENSICS</text><g font-size="12"><rect x="20" y="577" width="155" height="40" rx="10" fill="#100e20" stroke="#2d2349"/><text x="36" y="602" fill="#e2e8f0">PyTorch</text><rect x="190" y="577" width="155" height="40" rx="10" fill="#100e20" stroke="#2d2349"/><text x="206" y="602" fill="#e2e8f0">scikit-learn</text></g></g></g><g transform="translate(799 155)"><rect width="365" height="690" rx="24" fill="#160b17" stroke="url(#learnEdge)" stroke-opacity=".72"/><rect x="1" y="1" width="363" height="688" rx="23" fill="#180d19" fill-opacity=".5"/><circle cx="32" cy="36" r="10" fill="#f472b6" filter="url(#glow)"/><text x="54" y="43" fill="#f472b6" font-size="21" font-weight="800">EXPLORING / LEARNING</text><text x="28" y="67" fill="#64748b" font-family="monospace" font-size="10">CURRENT EXPERIMENTS / NEXT LAYER</text><g font-family="monospace"><text x="25" y="103" fill="#f472b6" font-size="11">AI / AGENTS</text><g font-size="12"><rect x="20" y="118" width="155" height="40" rx="10" fill="#1b0d1a" stroke="#45203e"/><text x="36" y="143" fill="#e2e8f0">AI Agents</text><rect x="190" y="118" width="155" height="40" rx="10" fill="#1b0d1a" stroke="#45203e"/><text x="206" y="143" fill="#e2e8f0">MCP</text><rect x="20" y="166" width="155" height="40" rx="10" fill="#1b0d1a" stroke="#45203e"/><text x="36" y="191" fill="#e2e8f0">Local LLMs</text><rect x="190" y="166" width="155" height="40" rx="10" fill="#1b0d1a" stroke="#45203e"/><text x="206" y="191" fill="#e2e8f0">Security RAG</text></g><text x="25" y="240" fill="#f472b6" font-size="11">CLOUD / ORCHESTRATION</text><g font-size="12"><rect x="20" y="255" width="155" height="40" rx="10" fill="#1b0d1a" stroke="#45203e"/><text x="36" y="280" fill="#e2e8f0">AWS</text><rect x="190" y="255" width="155" height="40" rx="10" fill="#1b0d1a" stroke="#45203e"/><text x="206" y="280" fill="#e2e8f0">Azure</text><rect x="20" y="303" width="155" height="40" rx="10" fill="#1b0d1a" stroke="#45203e"/><text x="36" y="328" fill="#e2e8f0">Kubernetes</text><rect x="190" y="303" width="155" height="40" rx="10" fill="#1b0d1a" stroke="#45203e"/><text x="206" y="328" fill="#e2e8f0">Terraform</text></g><text x="25" y="377" fill="#f472b6" font-size="11">SECURITY RESEARCH</text><g font-size="12"><rect x="20" y="392" width="155" height="40" rx="10" fill="#1b0d1a" stroke="#45203e"/><text x="36" y="417" fill="#e2e8f0">eBPF</text><rect x="190" y="392" width="155" height="40" rx="10" fill="#1b0d1a" stroke="#45203e"/><text x="206" y="417" fill="#e2e8f0">WASM</text><rect x="20" y="440" width="155" height="40" rx="10" fill="#1b0d1a" stroke="#45203e"/><text x="36" y="465" fill="#e2e8f0">IoT / OT</text><rect x="190" y="440" width="155" height="40" rx="10" fill="#1b0d1a" stroke="#45203e"/><text x="206" y="465" fill="#e2e8f0">Automotive Security</text></g><text x="25" y="514" fill="#f472b6" font-size="11">OBSERVABILITY</text><g font-size="12"><rect x="20" y="529" width="155" height="40" rx="10" fill="#1b0d1a" stroke="#45203e"/><text x="36" y="554" fill="#e2e8f0">OpenTelemetry</text><rect x="190" y="529" width="155" height="40" rx="10" fill="#1b0d1a" stroke="#45203e"/><text x="206" y="554" fill="#e2e8f0">Prometheus</text></g><text x="25" y="615" fill="#64748b" font-size="10">Exploring does not mean production expertise.</text><text x="25" y="634" fill="#64748b" font-size="10">It marks the next technical layer I'm testing.</text></g></g><rect x="35" y="150" width="1130" height="2" fill="#22d3ee" opacity=".18"><animate attributeName="y" values="150;845;150" dur="10s" repeatCount="indefinite"/></rect></svg>