<svg xmlns="http://www.w3.org/2000/svg" viewBox="0 0 1200 340"><rect width="1200" height="340" rx="22" fill="#05090f"/><rect x="8" y="8" width="1184" height="324" rx="18" fill="none" stroke="#26364f"/><text x="35" y="42" fill="#22d3ee" font-family="monospace" font-size="17">// SECURITY CAPABILITY MATRIX</text><g font-family="monospace" font-size="12"><g transform="translate(35 75)"><rect width="355" height="105" rx="14" fill="#08111b" stroke="#26364f"/><text x="18" y="30" fill="#22d3ee">SOC</text><text x="110" y="30" fill="#f8fafc">DETECT</text><text x="18" y="58" fill="#94a3b8">alerts · investigation · response</text><g fill="#34d399"><rect y="80" width="22" height="5"/><rect x="28" y="80" width="22" height="5"/><rect x="56" y="80" width="22" height="5"/><rect x="84" y="80" width="22" height="5"/><rect x="112" y="80" width="22" height="5"/></g></g><g transform="translate(420 75)"><rect width="355" height="105" rx="14" fill="#08111b" stroke="#26364f"/><text x="18" y="30" fill="#22d3ee">CTI</text><text x="110" y="30" fill="#f8fafc">CORRELATE</text><text x="18" y="58" fill="#94a3b8">IOC · ATT&amp;CK · knowledge graphs</text><g fill="#34d399"><rect y="80" width="22" height="5"/><rect x="28" y="80" width="22" height="5"/><rect x="56" y="80" width="22" height="5"/><rect x="84" y="80" width="22" height="5"/></g></g><g transform="translate(805 75)"><rect width="355" height="105" rx="14" fill="#08111b" stroke="#26364f"/><text x="18" y="30" fill="#22d3ee">IoT</text><text x="110" y="30" fill="#f8fafc">OBSERVE</text><text x="18" y="58" fill="#94a3b8">honeypots · telemetry · detection</text><g fill="#34d399"><rect y="80" width="22" height="5"/><rect x="28" y="80" width="22" height="5"/><rect x="56" y="80" width="22" height="5"/><rect x="84" y="80" width="22" height="5"/><rect x="112" y="80" width="22" height="5"/></g></g><g transform="translate(35 200)"><rect width="355" height="105" rx="14" fill="#08111b" stroke="#26364f"/><text x="18" y="30" fill="#22d3ee">AI</text><text x="110" y="30" fill="#f8fafc">VERIFY</text><text x="18" y="58" fill="#94a3b8">LLM workflows · governance</text><g fill="#34d399"><rect y="80" width="22" height="5"/><rect x="28" y="80" width="22" height="5"/><rect x="56" y="80" width="22" height="5"/><rect x="84" y="80" width="22" height="5"/></g></g><g transform="translate(420 200)"><rect width="355" height="105" rx="14" fill="#08111b" stroke="#26364f"/><text x="18" y="30" fill="#22d3ee">DFIR</text><text x="110" y="30" fill="#f8fafc">PROVE</text><text x="18" y="58" fill="#94a3b8">evidence · forensic analysis</text><g fill="#34d399"><rect y="80" width="22" height="5"/><rect x="28" y="80" width="22" height="5"/><rect x="56" y="80" width="22" height="5"/><rect x="84" y="80" width="22" height="5"/><rect x="112" y="80" width="22" height="5"/></g></g><g transform="translate(805 200)"><rect width="355" height="105" rx="14" fill="#08111b" stroke="#26364f"/><text x="18" y="30" fill="#22d3ee">IDENTITY</text><text x="150" y="30" fill="#f8fafc">CONTROL</text><text x="18" y="58" fill="#94a3b8">risk analytics · access</text><g fill="#34d399"><rect y="80" width="22" height="5"/><rect x="28" y="80" width="22" height="5"/><rect x="56" y="80" width="22" height="5"/><rect x="84" y="80" width="22" height="5"/></g></g></g></svg>