<svg xmlns="http://www.w3.org/2000/svg" viewBox="0 0 1200 420"><style>text{font-family:ui-monospace,monospace}.flow{stroke-dasharray:10 8;animation:f 2s linear infinite}@keyframes f{to{stroke-dashoffset:-36}}.node{animation:n 2.4s infinite}@keyframes n{50%{filter:drop-shadow(0 0 7px #22d3ee)}}</style><rect width="1200" height="420" fill="#03070d"/><text x="35" y="35" fill="#22d3ee" font-size="18">// SECURITY KNOWLEDGE GRAPH</text><g stroke="#22d3ee" opacity=".35" stroke-width="2" class="flow"><path d="M150 210L350 110 600 210 850 110 1050 210M350 110L450 320 600 210 760 320 850 110M150 210L450 320 1050 210"/></g><g class="node" fill="#071827" stroke="#22d3ee" stroke-width="2"><circle cx="150" cy="210" r="38"/><circle cx="350" cy="110" r="38"/><circle cx="600" cy="210" r="48"/><circle cx="850" cy="110" r="38"/><circle cx="1050" cy="210" r="38"/><circle cx="450" cy="320" r="38"/><circle cx="760" cy="320" r="38"/></g><g fill="#e2e8f0" font-size="13"><text x="125" y="215">SOC</text><text x="325" y="115">IOC</text><text x="560" y="215">ATT&amp;CK</text><text x="825" y="115">AI</text><text x="1020" y="215">CASE</text><text x="420" y="325">DFIR</text><text x="730" y="325">IDENTITY</text></g></svg>